<svg fill="none" height="32" viewBox="0 0 32 32" width="32" xmlns="http://www.w3.org/2000/svg"><g fill="#fff"><path d="m13.3287 14.6946c-.2487.1776-.5684.2842-.9592.2842h-2.2025v-2.3091h2.0604c.2132 0 .3908 0 .5684.0355s.3197.1066.4618.1776c.1421.1066.2487.2132.3198.3552.071.1421.1065.3553.1065.5684 0 .3908-.1065.7105-.3552.8882z"/><path d="m13.08 19.0996c-.1776.0355-.3908.0711-.6039.0711h-2.3091v-2.7354h2.3446c.4618 0 .8526.1065 1.1368.3197.2842.2487.4263.6039.4263 1.1012 0 .2487-.071.4619-.1421.6395-.1066.1776-.2131.2842-.3552.3908-.1421.1065-.3198.1776-.4974.2131z"/><path d="m20.4691 15.0143c.4618 0 .8526.1421 1.1013.3907.2487.2487.4263.604.4973 1.1368h-3.1972c0-.1177.0244-.2354.053-.3733.0059-.0286.012-.058.0181-.0885.0355-.1776.1065-.3552.2486-.4973s.2842-.2842.4974-.3908c.2131-.1066.4618-.1776.7815-.1776z"/><path clip-rule="evenodd" d="m5 0c-2.76142 0-5 2.23858-5 5v22c0 2.7614 2.23858 5 5 5h22c2.7614 0 5-2.2386 5-5v-22c0-2.76142-2.2386-5-5-5zm8.9326 11.1421c-.3908-.1066-.8171-.1421-1.2789-.1421h-4.6537v9.8048h4.7603c.4263 0 .8526-.0711 1.2789-.1776.4263-.1066.817-.2842 1.1368-.4974.3197-.2131.6039-.5328.7815-.8881.1776-.3552.2842-.7815.2842-1.2789 0-.6039-.1776-1.1368-.4618-1.5631s-.746-.746-1.35-.9236c.4263-.2131.7816-.4973.9947-.8171.2487-.3197.3553-.746.3553-1.2433 0-.4263-.0711-.8171-.2132-1.1368s-.3552-.5684-.6394-.746c-.2842-.1777-.6039-.3198-.9947-.3908zm6.6786 8.4193c-.5684 0-.9947-.1421-1.2789-.4263s-.4973-.817-.4973-1.3854h5.1511c.0355-.5684 0-1.0658-.0711-1.5631-.1421-.4974-.3552-.9592-.6394-1.3499-.2842-.4263-.6395-.7105-1.1013-.9592s-.9947-.3553-1.5986-.3553c-.5684 0-1.0302.1066-1.492.2842-.4263.1777-.8171.4619-1.1368.7816-.3197.3552-.5684.746-.746 1.2078-.1777.4618-.2487.9592-.2487 1.4921 0 .5683.071 1.0657.2487 1.5275.1421.4618.3907.8526.7105 1.1723.3197.3553.6749.6039 1.1367.7816.4619.1776.9592.2842 1.5276.2842.8171 0 1.492-.2132 2.0604-.5684.5684-.3908.9947-.9947 1.2789-1.8473h-1.7407c-.071.2131-.2487.4263-.5329.6394-.2842.1777-.6394.2842-1.0302.2842zm1.8118-7.8864h-3.9788v.9591h3.9788z" fill-rule="evenodd"/></g></svg>