<svg height="52" viewBox="0 0 52 52" width="52" xmlns="http://www.w3.org/2000/svg"><g fill="none" fill-rule="evenodd"><path d="m0 0h52v52h-52z" opacity="0"/><path d="m49.5979248 45.2979083-13.4-13.3c2.7-3.8 4.1-8.6 3.4-13.7-1.2-8.59999996-8.2-15.39999996-16.9-16.19999996-11.8-1.2-21.79999998 8.79999996-20.59999998 20.69999996.8 8.6 7.6 15.7 16.19999998 16.9 5.1.7 9.9-.7 13.7-3.4l13.3 13.3c.6.6 1.5.6 2.1 0l2.1-2.1c.6-.6.6-1.6.1-2.2zm-41.59999998-24.4c0-7.1 5.79999998-12.89999996 12.89999998-12.89999996s12.9 5.79999996 12.9 12.89999996-5.8 12.9-12.9 12.9-12.89999998-5.7-12.89999998-12.9z" fill="#fff"/></g></svg>